{
  "source": "C:\\Users\\Peter\\Desktop\\stuff\\MIUN\\quantitative_research\\video_compression\\videos\\BVI-HD\\Diver_1920x1080_30fps.mp4",
  "output": "C:\\Users\\Peter\\Desktop\\stuff\\MIUN\\quantitative_research\\video_compression\\compressed_videos\\BVI-HD\\vp9\\12\\Diver_1920x1080_30fps_vp9.webm",
  "codec": "vp9",
  "ok": "Input #0, mov,mp4,m4a,3gp,3g2,mj2, from 'C:\\Users\\Peter\\Desktop\\stuff\\MIUN\\quantitative_research\\video_compression\\videos\\BVI-HD\\Diver_1920x1080_30fps.mp4':\n  Metadata:\n    major_brand     : isom\n    minor_version   : 512\n    compatible_brands: isomiso2avc1mp41\n    encoder         : Lavf54.28.101\n  Duration: 00:00:05.00, start: 0.000000, bitrate: 196798 kb/s\n  Stream #0:0[0x1](und): Video: h264 (High 4:4:4 Predictive) (avc1 / 0x31637661), yuv420p(progressive), 1920x1080, 196794 kb/s, 30 fps, 30 tbr, 30 tbn (default)\n    Metadata:\n      handler_name    : VideoHandler\n      vendor_id       : [0][0][0][0]\n[out#0/webm @ 00000209f945ab00] Codec AVOption b:a (set bitrate (in bits/s)) has not been used for any stream. The most likely reason is either wrong type (e.g. a video option with no video streams) or that it is a private option of some decoder which was not actually used for any stream.\nStream mapping:\n  Stream #0:0 -> #0:0 (h264 (native) -> vp9 (libvpx-vp9))\nPress [q] to stop, [?] for help\n[libvpx-vp9 @ 00000209f8e9edc0] v1.15.2-100-g40561f514\nOutput #0, webm, to 'C:\\Users\\Peter\\Desktop\\stuff\\MIUN\\quantitative_research\\video_compression\\compressed_videos\\BVI-HD\\vp9\\12\\Diver_1920x1080_30fps_vp9.webm':\n  Metadata:\n    major_brand     : isom\n    minor_version   : 512\n    compatible_brands: isomiso2avc1mp41\n    encoder         : Lavf62.3.100\n  Stream #0:0(und): Video: vp9, yuv420p(tv, progressive), 1920x1080, q=2-31, 12000 kb/s, 30 fps, 1k tbn (default)\n    Metadata:\n      encoder         : Lavc62.11.100 libvpx-vp9\n      handler_name    : VideoHandler\n      vendor_id       : [0][0][0][0]\n    Side data:\n      cpb: bitrate max/min/avg: 0/0/0 buffer size: 12000000 vbv_delay: N/A\nframe=    0 fps=0.0 q=0.0 size=       0KiB time=N/A bitrate=N/A speed=N/A elapsed=0:00:00.51    \nframe=    3 fps=2.4 q=31.0 size=       1KiB time=00:00:00.10 bitrate=  50.7kbits/s speed=0.0798x elapsed=0:00:01.25    \nframe=    6 fps=3.4 q=19.0 size=       1KiB time=00:00:00.20 bitrate=  25.4kbits/s speed=0.112x elapsed=0:00:01.78    \nframe=    9 fps=3.8 q=14.0 size=       1KiB time=00:00:00.30 bitrate=  16.9kbits/s speed=0.128x elapsed=0:00:02.34    \nframe=   10 fps=3.5 q=13.0 size=       1KiB time=00:00:00.33 bitrate=  15.2kbits/s speed=0.115x elapsed=0:00:02.88    \nframe=   12 fps=3.5 q=12.0 size=       1KiB time=00:00:00.40 bitrate=  12.7kbits/s speed=0.117x elapsed=0:00:03.41    \nframe=   14 fps=3.5 q=11.0 size=       1KiB time=00:00:00.46 bitrate=  10.9kbits/s speed=0.118x elapsed=0:00:03.95    \nframe=   16 fps=3.6 q=12.0 size=       1KiB time=00:00:00.53 bitrate=   9.5kbits/s speed=0.119x elapsed=0:00:04.48    \nframe=   18 fps=3.6 q=12.0 size=       1KiB time=00:00:00.60 bitrate=   8.5kbits/s speed=0.119x elapsed=0:00:05.04    \nframe=   20 fps=3.6 q=13.0 size=       1KiB time=00:00:00.66 bitrate=   7.6kbits/s speed=0.12x elapsed=0:00:05.57    \nframe=   21 fps=3.4 q=4.0 size=       1KiB time=00:00:00.70 bitrate=   7.2kbits/s speed=0.114x elapsed=0:00:06.12    \nframe=   23 fps=3.5 q=12.0 size=       1KiB time=00:00:00.76 bitrate=   6.6kbits/s speed=0.116x elapsed=0:00:06.63    \nframe=   25 fps=3.5 q=12.0 size=       1KiB time=00:00:00.83 bitrate=   6.1kbits/s speed=0.116x elapsed=0:00:07.16    \nframe=   28 fps=3.6 q=12.0 size=       1KiB time=00:00:00.93 bitrate=   5.4kbits/s speed=0.121x elapsed=0:00:07.71    \nframe=   30 fps=3.6 q=12.0 size=       1KiB time=00:00:01.00 bitrate=   5.1kbits/s speed=0.121x elapsed=0:00:08.28    \nframe=   30 fps=3.4 q=12.0 size=       1KiB time=00:00:01.00 bitrate=   5.1kbits/s speed=0.113x elapsed=0:00:08.85    \nframe=   32 fps=3.4 q=12.0 size=       1KiB time=00:00:01.06 bitrate=   4.8kbits/s speed=0.114x elapsed=0:00:09.38    \nframe=   34 fps=3.4 q=12.0 size=       1KiB time=00:00:01.13 bitrate=   4.5kbits/s speed=0.114x elapsed=0:00:09.92    \nframe=   37 fps=3.5 q=13.0 size=       1KiB time=00:00:01.23 bitrate=   4.1kbits/s speed=0.118x elapsed=0:00:10.44    \nframe=   39 fps=3.5 q=13.0 size=       1KiB time=00:00:01.30 bitrate=   3.9kbits/s speed=0.118x elapsed=0:00:11.03    \nframe=   40 fps=3.5 q=13.0 size=       1KiB time=00:00:01.33 bitrate=   3.8kbits/s speed=0.115x elapsed=0:00:11.57    \nframe=   42 fps=3.5 q=11.0 size=       1KiB time=00:00:01.40 bitrate=   3.6kbits/s speed=0.115x elapsed=0:00:12.15    \nframe=   44 fps=3.5 q=12.0 size=       1KiB time=00:00:01.46 bitrate=   3.5kbits/s speed=0.116x elapsed=0:00:12.69    \nframe=   46 fps=3.5 q=12.0 size=       1KiB time=00:00:01.53 bitrate=   3.3kbits/s speed=0.116x elapsed=0:00:13.21    \nframe=   47 fps=3.4 q=6.0 size=       1KiB time=00:00:01.56 bitrate=   3.2kbits/s speed=0.114x elapsed=0:00:13.77    \nframe=   49 fps=3.4 q=13.0 size=       1KiB time=00:00:01.63 bitrate=   3.1kbits/s speed=0.114x elapsed=0:00:14.32    \nframe=   51 fps=3.4 q=13.0 size=       1KiB time=00:00:01.70 bitrate=   3.0kbits/s speed=0.114x elapsed=0:00:14.88    \nframe=   52 fps=3.4 q=14.0 size=       1KiB time=00:00:01.73 bitrate=   2.9kbits/s speed=0.112x elapsed=0:00:15.42    \nframe=   54 fps=3.4 q=14.0 size=       1KiB time=00:00:01.80 bitrate=   2.8kbits/s speed=0.113x elapsed=0:00:15.96    \nframe=   56 fps=3.4 q=14.0 size=       1KiB time=00:00:01.86 bitrate=   2.7kbits/s speed=0.113x elapsed=0:00:16.49    \nframe=   58 fps=3.4 q=14.0 size=       1KiB time=00:00:01.93 bitrate=   2.6kbits/s speed=0.113x elapsed=0:00:17.06    \nframe=   59 fps=3.3 q=7.0 size=       1KiB time=00:00:01.96 bitrate=   2.6kbits/s speed=0.112x elapsed=0:00:17.63    \nframe=   61 fps=3.4 q=14.0 size=       1KiB time=00:00:02.03 bitrate=   2.5kbits/s speed=0.112x elapsed=0:00:18.17    \nframe=   63 fps=3.4 q=14.0 size=       1KiB time=00:00:02.10 bitrate=   2.4kbits/s speed=0.112x elapsed=0:00:18.69    \nframe=   64 fps=3.3 q=13.0 size=       1KiB time=00:00:02.13 bitrate=   2.4kbits/s speed=0.111x elapsed=0:00:19.21    \nframe=   67 fps=3.4 q=13.0 size=       1KiB time=00:00:02.23 bitrate=   2.3kbits/s speed=0.113x elapsed=0:00:19.73    \nframe=   69 fps=3.4 q=13.0 size=       1KiB time=00:00:02.30 bitrate=   2.2kbits/s speed=0.113x elapsed=0:00:20.26    \nframe=   70 fps=3.4 q=13.0 size=       1KiB time=00:00:02.33 bitrate=   2.2kbits/s speed=0.112x elapsed=0:00:20.80    \nframe=   72 fps=3.4 q=13.0 size=       1KiB time=00:00:02.40 bitrate=   2.1kbits/s speed=0.112x elapsed=0:00:21.35    \nframe=   74 fps=3.4 q=13.0 size=       1KiB time=00:00:02.46 bitrate=   2.1kbits/s speed=0.113x elapsed=0:00:21.90    \nframe=   76 fps=3.4 q=14.0 size=       1KiB time=00:00:02.53 bitrate=   2.0kbits/s speed=0.113x elapsed=0:00:22.45    \nframe=   76 fps=3.3 q=14.0 size=       1KiB time=00:00:02.53 bitrate=   2.0kbits/s speed=0.11x elapsed=0:00:23.00    \nframe=   79 fps=3.4 q=14.0 size=       1KiB time=00:00:02.63 bitrate=   1.9kbits/s speed=0.112x elapsed=0:00:23.53    \nframe=   81 fps=3.4 q=14.0 size=       1KiB time=00:00:02.70 bitrate=   1.9kbits/s speed=0.112x elapsed=0:00:24.09    \nframe=   82 fps=3.3 q=15.0 size=       1KiB time=00:00:02.73 bitrate=   1.9kbits/s speed=0.111x elapsed=0:00:24.62    \nframe=   84 fps=3.3 q=15.0 size=       1KiB time=00:00:02.80 bitrate=   1.8kbits/s speed=0.111x elapsed=0:00:25.17    \nframe=   86 fps=3.3 q=15.0 size=       1KiB time=00:00:02.86 bitrate=   1.8kbits/s speed=0.111x elapsed=0:00:25.72    \nframe=   88 fps=3.4 q=15.0 size=       1KiB time=00:00:02.93 bitrate=   1.7kbits/s speed=0.112x elapsed=0:00:26.25    \nframe=   89 fps=3.3 q=7.0 size=       1KiB time=00:00:02.96 bitrate=   1.7kbits/s speed=0.111x elapsed=0:00:26.81    \nframe=   91 fps=3.3 q=15.0 size=       1KiB time=00:00:03.03 bitrate=   1.7kbits/s speed=0.111x elapsed=0:00:27.33    \nframe=   93 fps=3.3 q=15.0 size=       1KiB time=00:00:03.10 bitrate=   1.6kbits/s speed=0.111x elapsed=0:00:27.85    \nframe=   94 fps=3.3 q=14.0 size=       1KiB time=00:00:03.13 bitrate=   1.6kbits/s speed=0.11x elapsed=0:00:28.37    \nframe=   96 fps=3.3 q=14.0 size=       1KiB time=00:00:03.20 bitrate=   1.6kbits/s speed=0.111x elapsed=0:00:28.94    \nframe=   98 fps=3.3 q=13.0 size=       1KiB time=00:00:03.26 bitrate=   1.6kbits/s speed=0.111x elapsed=0:00:29.47    \nframe=  100 fps=3.3 q=13.0 size=       1KiB time=00:00:03.33 bitrate=   1.5kbits/s speed=0.111x elapsed=0:00:30.00    \nframe=  102 fps=3.3 q=13.0 size=       1KiB time=00:00:03.40 bitrate=   1.5kbits/s speed=0.111x elapsed=0:00:30.56    \nframe=  104 fps=3.3 q=13.0 size=       1KiB time=00:00:03.46 bitrate=   1.5kbits/s speed=0.111x elapsed=0:00:31.10    \nframe=  106 fps=3.4 q=14.0 size=       1KiB time=00:00:03.53 bitrate=   1.4kbits/s speed=0.112x elapsed=0:00:31.64    \nframe=  108 fps=3.4 q=14.0 size=       1KiB time=00:00:03.60 bitrate=   1.4kbits/s speed=0.112x elapsed=0:00:32.18    \nframe=  110 fps=3.4 q=15.0 size=       1KiB time=00:00:03.66 bitrate=   1.4kbits/s speed=0.112x elapsed=0:00:32.74    \nframe=  112 fps=3.4 q=15.0 size=       1KiB time=00:00:03.73 bitrate=   1.4kbits/s speed=0.112x elapsed=0:00:33.31    \nframe=  114 fps=3.4 q=15.0 size=       1KiB time=00:00:03.80 bitrate=   1.3kbits/s speed=0.112x elapsed=0:00:33.89    \nframe=  116 fps=3.4 q=15.0 size=       1KiB time=00:00:03.86 bitrate=   1.3kbits/s speed=0.112x elapsed=0:00:34.44    \nframe=  118 fps=3.4 q=15.0 size=       1KiB time=00:00:03.93 bitrate=   1.3kbits/s speed=0.112x elapsed=0:00:35.00    \nframe=  120 fps=3.4 q=17.0 size=       1KiB time=00:00:04.00 bitrate=   1.3kbits/s speed=0.112x elapsed=0:00:35.55    \nframe=  122 fps=3.4 q=16.0 size=       1KiB time=00:00:04.06 bitrate=   1.2kbits/s speed=0.113x elapsed=0:00:36.08    \nframe=  124 fps=3.4 q=8.0 size=       1KiB time=00:00:04.13 bitrate=   1.2kbits/s speed=0.113x elapsed=0:00:36.63    \nframe=  126 fps=3.4 q=16.0 size=       1KiB time=00:00:04.20 bitrate=   1.2kbits/s speed=0.113x elapsed=0:00:37.17    \nframe=  126 fps=3.3 q=16.0 size=       1KiB time=00:00:04.20 bitrate=   1.2kbits/s speed=0.111x elapsed=0:00:37.71    \nframe=  126 fps=3.3 q=16.0 size=       1KiB time=00:00:04.20 bitrate=   1.2kbits/s speed=0.11x elapsed=0:00:38.24    \nframe=  126 fps=3.2 q=16.0 size=       1KiB time=00:00:04.20 bitrate=   1.2kbits/s speed=0.108x elapsed=0:00:38.78    \nframe=  126 fps=3.2 q=16.0 size=       1KiB time=00:00:04.20 bitrate=   1.2kbits/s speed=0.107x elapsed=0:00:39.34    \nframe=  126 fps=3.2 q=16.0 size=       1KiB time=00:00:04.20 bitrate=   1.2kbits/s speed=0.105x elapsed=0:00:39.90    \nframe=  126 fps=3.1 q=16.0 size=       1KiB time=00:00:04.20 bitrate=   1.2kbits/s speed=0.104x elapsed=0:00:40.43    \nframe=  126 fps=3.1 q=16.0 size=       1KiB time=00:00:04.20 bitrate=   1.2kbits/s speed=0.103x elapsed=0:00:40.94    \nframe=  126 fps=3.0 q=16.0 size=       1KiB time=00:00:04.20 bitrate=   1.2kbits/s speed=0.101x elapsed=0:00:41.46    \nframe=  126 fps=3.0 q=16.0 size=       1KiB time=00:00:04.20 bitrate=   1.2kbits/s speed=0.0999x elapsed=0:00:42.02    \nframe=  126 fps=3.0 q=16.0 size=       1KiB time=00:00:04.20 bitrate=   1.2kbits/s speed=0.0987x elapsed=0:00:42.54    \nframe=  126 fps=2.9 q=16.0 size=       1KiB time=00:00:04.20 bitrate=   1.2kbits/s speed=0.0975x elapsed=0:00:43.05    \n[out#0/webm @ 00000209f945ab00] video:5927KiB audio:0KiB subtitle:0KiB other streams:0KiB global headers:0KiB muxing overhead: 0.031142%\nframe=  150 fps=3.5 q=17.0 Lsize=    5929KiB time=00:00:05.00 bitrate=9713.3kbits/s speed=0.116x elapsed=0:00:43.21    \n",
  "seconds": 43.66417980194092,
  "probe_out": {}
}